<svg width="640" height="740" viewBox="0 0 640 740" fill="none" xmlns="http://www.w3.org/2000/svg">
  <rect width="640" height="740" rx="32" fill="#F3F4F6"/>
  <circle cx="320" cy="240" r="140" fill="#D1D5DB"/>
  <circle cx="320" cy="220" r="92" fill="#E5E7EB"/>
  <path d="M220 565C236 492 278 454 320 454C362 454 404 492 420 565V640H220V565Z" fill="#D1D5DB"/>
  <path d="M265 206C265 156.399 305.399 116 355 116H369C418.601 116 459 156.399 459 206V220C459 269.601 418.601 310 369 310H355C305.399 310 265 269.601 265 220V206Z" fill="#111318" fill-opacity="0.08"/>
  <rect x="116" y="620" width="408" height="26" rx="13" fill="#E5E7EB"/>
  <rect x="188" y="660" width="264" height="18" rx="9" fill="#E5E7EB"/>
</svg>
